<mxfile host="app.diagrams.net" modified="2021-09-02T02:21:06.831Z" agent="5.0 (Windows NT 10.0; Win64; x64) AppleWebKit/537.36 (KHTML, like Gecko) Chrome/92.0.4515.131 Safari/537.36" etag="BqJPg_8vCIUneVoDRZz2" version="15.0.3" type="github" pages="3">
  <diagram id="NmSEz5Swo566c4eFkPjX" name="Page-1">
    <mxGraphModel dx="1422" dy="761" grid="0" gridSize="10" guides="1" tooltips="1" connect="1" arrows="1" fold="1" page="1" pageScale="1" pageWidth="827" pageHeight="1169" math="0" shadow="0">
      <root>
        <mxCell id="0" />
        <mxCell id="1" parent="0" />
        <mxCell id="GOX4k8V0ouQFtmUzFHbz-4" style="edgeStyle=orthogonalEdgeStyle;rounded=0;orthogonalLoop=1;jettySize=auto;html=1;exitX=0.5;exitY=1;exitDx=0;exitDy=0;" edge="1" parent="1" source="GOX4k8V0ouQFtmUzFHbz-1" target="GOX4k8V0ouQFtmUzFHbz-2">
          <mxGeometry relative="1" as="geometry" />
        </mxCell>
        <mxCell id="GOX4k8V0ouQFtmUzFHbz-8" style="edgeStyle=orthogonalEdgeStyle;rounded=0;orthogonalLoop=1;jettySize=auto;html=1;exitX=0.5;exitY=1;exitDx=0;exitDy=0;" edge="1" parent="1" source="GOX4k8V0ouQFtmUzFHbz-1" target="GOX4k8V0ouQFtmUzFHbz-7">
          <mxGeometry relative="1" as="geometry" />
        </mxCell>
        <mxCell id="GOX4k8V0ouQFtmUzFHbz-1" value="客户端" style="rounded=1;whiteSpace=wrap;html=1;fontStyle=1" vertex="1" parent="1">
          <mxGeometry x="362" y="57" width="120" height="60" as="geometry" />
        </mxCell>
        <mxCell id="GOX4k8V0ouQFtmUzFHbz-5" style="edgeStyle=orthogonalEdgeStyle;rounded=0;orthogonalLoop=1;jettySize=auto;html=1;exitX=0.5;exitY=1;exitDx=0;exitDy=0;" edge="1" parent="1" source="GOX4k8V0ouQFtmUzFHbz-2" target="GOX4k8V0ouQFtmUzFHbz-3">
          <mxGeometry relative="1" as="geometry" />
        </mxCell>
        <mxCell id="GOX4k8V0ouQFtmUzFHbz-2" value="用户" style="rounded=1;whiteSpace=wrap;html=1;" vertex="1" parent="1">
          <mxGeometry x="120" y="181" width="120" height="60" as="geometry" />
        </mxCell>
        <mxCell id="GOX4k8V0ouQFtmUzFHbz-9" style="edgeStyle=orthogonalEdgeStyle;rounded=0;orthogonalLoop=1;jettySize=auto;html=1;exitX=1;exitY=0.5;exitDx=0;exitDy=0;" edge="1" parent="1" source="GOX4k8V0ouQFtmUzFHbz-3" target="GOX4k8V0ouQFtmUzFHbz-7">
          <mxGeometry relative="1" as="geometry" />
        </mxCell>
        <mxCell id="GOX4k8V0ouQFtmUzFHbz-12" style="edgeStyle=orthogonalEdgeStyle;rounded=0;orthogonalLoop=1;jettySize=auto;html=1;exitX=0.5;exitY=1;exitDx=0;exitDy=0;entryX=0;entryY=0.5;entryDx=0;entryDy=0;" edge="1" parent="1" source="GOX4k8V0ouQFtmUzFHbz-3" target="GOX4k8V0ouQFtmUzFHbz-11">
          <mxGeometry relative="1" as="geometry" />
        </mxCell>
        <mxCell id="GOX4k8V0ouQFtmUzFHbz-3" value="眼球视线" style="rounded=1;whiteSpace=wrap;html=1;" vertex="1" parent="1">
          <mxGeometry x="120" y="320" width="120" height="60" as="geometry" />
        </mxCell>
        <mxCell id="GOX4k8V0ouQFtmUzFHbz-6" value="1.检测是否真人" style="text;html=1;strokeColor=none;fillColor=none;align=center;verticalAlign=middle;whiteSpace=wrap;rounded=0;" vertex="1" parent="1">
          <mxGeometry x="86" y="271" width="87" height="20" as="geometry" />
        </mxCell>
        <mxCell id="GOX4k8V0ouQFtmUzFHbz-18" style="edgeStyle=orthogonalEdgeStyle;rounded=0;orthogonalLoop=1;jettySize=auto;html=1;exitX=0.25;exitY=1;exitDx=0;exitDy=0;entryX=0.25;entryY=0;entryDx=0;entryDy=0;" edge="1" parent="1" source="GOX4k8V0ouQFtmUzFHbz-7" target="GOX4k8V0ouQFtmUzFHbz-11">
          <mxGeometry relative="1" as="geometry" />
        </mxCell>
        <mxCell id="GOX4k8V0ouQFtmUzFHbz-19" style="edgeStyle=orthogonalEdgeStyle;rounded=0;orthogonalLoop=1;jettySize=auto;html=1;exitX=0.75;exitY=1;exitDx=0;exitDy=0;entryX=0.75;entryY=0;entryDx=0;entryDy=0;" edge="1" parent="1" source="GOX4k8V0ouQFtmUzFHbz-7" target="GOX4k8V0ouQFtmUzFHbz-11">
          <mxGeometry relative="1" as="geometry" />
        </mxCell>
        <mxCell id="GOX4k8V0ouQFtmUzFHbz-7" value="主页" style="rounded=1;whiteSpace=wrap;html=1;" vertex="1" parent="1">
          <mxGeometry x="362" y="320" width="120" height="60" as="geometry" />
        </mxCell>
        <mxCell id="GOX4k8V0ouQFtmUzFHbz-10" value="2.视线位置" style="text;html=1;strokeColor=none;fillColor=none;align=center;verticalAlign=middle;whiteSpace=wrap;rounded=0;" vertex="1" parent="1">
          <mxGeometry x="269" y="318" width="71" height="20" as="geometry" />
        </mxCell>
        <mxCell id="GOX4k8V0ouQFtmUzFHbz-22" style="edgeStyle=orthogonalEdgeStyle;rounded=0;orthogonalLoop=1;jettySize=auto;html=1;exitX=1;exitY=0.5;exitDx=0;exitDy=0;" edge="1" parent="1" source="GOX4k8V0ouQFtmUzFHbz-11" target="GOX4k8V0ouQFtmUzFHbz-21">
          <mxGeometry relative="1" as="geometry" />
        </mxCell>
        <mxCell id="GOX4k8V0ouQFtmUzFHbz-11" value="主播框格" style="rounded=1;whiteSpace=wrap;html=1;" vertex="1" parent="1">
          <mxGeometry x="362" y="479" width="120" height="60" as="geometry" />
        </mxCell>
        <mxCell id="GOX4k8V0ouQFtmUzFHbz-14" value="4.直播流" style="text;html=1;strokeColor=none;fillColor=none;align=center;verticalAlign=middle;whiteSpace=wrap;rounded=0;" vertex="1" parent="1">
          <mxGeometry x="325" y="420" width="55" height="20" as="geometry" />
        </mxCell>
        <mxCell id="GOX4k8V0ouQFtmUzFHbz-15" value="3.锁定主播" style="text;html=1;strokeColor=none;fillColor=none;align=center;verticalAlign=middle;whiteSpace=wrap;rounded=0;" vertex="1" parent="1">
          <mxGeometry x="229" y="482" width="70" height="20" as="geometry" />
        </mxCell>
        <mxCell id="GOX4k8V0ouQFtmUzFHbz-20" value="5.如关闭屏幕&lt;br&gt;只显示声音" style="text;html=1;strokeColor=none;fillColor=none;align=center;verticalAlign=middle;whiteSpace=wrap;rounded=0;" vertex="1" parent="1">
          <mxGeometry x="452" y="407" width="94" height="20" as="geometry" />
        </mxCell>
        <mxCell id="GOX4k8V0ouQFtmUzFHbz-21" value="直播间" style="rounded=1;whiteSpace=wrap;html=1;" vertex="1" parent="1">
          <mxGeometry x="589" y="479" width="120" height="60" as="geometry" />
        </mxCell>
        <mxCell id="GOX4k8V0ouQFtmUzFHbz-23" value="6.一定时长跳转" style="text;html=1;strokeColor=none;fillColor=none;align=center;verticalAlign=middle;whiteSpace=wrap;rounded=0;" vertex="1" parent="1">
          <mxGeometry x="492" y="484" width="87" height="20" as="geometry" />
        </mxCell>
      </root>
    </mxGraphModel>
  </diagram>
  <diagram id="b2mf78Cs_sP5IUDQuSDe" name="Page-2">
    <mxGraphModel dx="1422" dy="761" grid="0" gridSize="10" guides="1" tooltips="1" connect="1" arrows="1" fold="1" page="1" pageScale="1" pageWidth="827" pageHeight="1169" math="0" shadow="0">
      <root>
        <mxCell id="iwIBc7VTmAkqCL7bW6ua-0" />
        <mxCell id="iwIBc7VTmAkqCL7bW6ua-1" parent="iwIBc7VTmAkqCL7bW6ua-0" />
        <mxCell id="iwIBc7VTmAkqCL7bW6ua-7" style="edgeStyle=orthogonalEdgeStyle;rounded=0;orthogonalLoop=1;jettySize=auto;html=1;exitX=0.5;exitY=1;exitDx=0;exitDy=0;" edge="1" parent="iwIBc7VTmAkqCL7bW6ua-1" source="iwIBc7VTmAkqCL7bW6ua-2" target="iwIBc7VTmAkqCL7bW6ua-4">
          <mxGeometry relative="1" as="geometry" />
        </mxCell>
        <mxCell id="iwIBc7VTmAkqCL7bW6ua-21" style="edgeStyle=orthogonalEdgeStyle;rounded=0;orthogonalLoop=1;jettySize=auto;html=1;exitX=1;exitY=0.5;exitDx=0;exitDy=0;" edge="1" parent="iwIBc7VTmAkqCL7bW6ua-1" source="iwIBc7VTmAkqCL7bW6ua-2" target="iwIBc7VTmAkqCL7bW6ua-15">
          <mxGeometry relative="1" as="geometry">
            <Array as="points">
              <mxPoint x="536" y="64" />
              <mxPoint x="536" y="204" />
              <mxPoint x="622" y="204" />
            </Array>
          </mxGeometry>
        </mxCell>
        <mxCell id="iwIBc7VTmAkqCL7bW6ua-24" style="edgeStyle=orthogonalEdgeStyle;rounded=0;orthogonalLoop=1;jettySize=auto;html=1;exitX=1;exitY=0.5;exitDx=0;exitDy=0;entryX=0;entryY=0.5;entryDx=0;entryDy=0;" edge="1" parent="iwIBc7VTmAkqCL7bW6ua-1" source="iwIBc7VTmAkqCL7bW6ua-2" target="iwIBc7VTmAkqCL7bW6ua-22">
          <mxGeometry relative="1" as="geometry" />
        </mxCell>
        <mxCell id="iwIBc7VTmAkqCL7bW6ua-2" value="客户端" style="rounded=1;whiteSpace=wrap;html=1;" vertex="1" parent="iwIBc7VTmAkqCL7bW6ua-1">
          <mxGeometry x="90" y="34" width="120" height="60" as="geometry" />
        </mxCell>
        <mxCell id="iwIBc7VTmAkqCL7bW6ua-3" value="常用用户" style="rounded=1;whiteSpace=wrap;html=1;" vertex="1" parent="iwIBc7VTmAkqCL7bW6ua-1">
          <mxGeometry x="324" y="233" width="120" height="60" as="geometry" />
        </mxCell>
        <mxCell id="iwIBc7VTmAkqCL7bW6ua-9" style="edgeStyle=orthogonalEdgeStyle;rounded=0;orthogonalLoop=1;jettySize=auto;html=1;exitX=0.5;exitY=1;exitDx=0;exitDy=0;entryX=0.1;entryY=0.5;entryDx=0;entryDy=0;entryPerimeter=0;" edge="1" parent="iwIBc7VTmAkqCL7bW6ua-1" source="iwIBc7VTmAkqCL7bW6ua-4" target="iwIBc7VTmAkqCL7bW6ua-8">
          <mxGeometry relative="1" as="geometry">
            <Array as="points">
              <mxPoint x="150" y="386" />
            </Array>
          </mxGeometry>
        </mxCell>
        <mxCell id="iwIBc7VTmAkqCL7bW6ua-4" value="摄像头" style="rounded=1;whiteSpace=wrap;html=1;" vertex="1" parent="iwIBc7VTmAkqCL7bW6ua-1">
          <mxGeometry x="90" y="151" width="120" height="60" as="geometry" />
        </mxCell>
        <mxCell id="iwIBc7VTmAkqCL7bW6ua-5" value="年龄" style="rounded=1;whiteSpace=wrap;html=1;" vertex="1" parent="iwIBc7VTmAkqCL7bW6ua-1">
          <mxGeometry x="324" y="356" width="120" height="60" as="geometry" />
        </mxCell>
        <mxCell id="iwIBc7VTmAkqCL7bW6ua-6" value="距离屏幕距离" style="rounded=1;whiteSpace=wrap;html=1;" vertex="1" parent="iwIBc7VTmAkqCL7bW6ua-1">
          <mxGeometry x="324" y="479" width="120" height="60" as="geometry" />
        </mxCell>
        <mxCell id="iwIBc7VTmAkqCL7bW6ua-8" value="" style="shape=curlyBracket;whiteSpace=wrap;html=1;rounded=1;" vertex="1" parent="iwIBc7VTmAkqCL7bW6ua-1">
          <mxGeometry x="290" y="260" width="20" height="252" as="geometry" />
        </mxCell>
        <mxCell id="iwIBc7VTmAkqCL7bW6ua-10" value="1.采集网络" style="text;html=1;strokeColor=none;fillColor=none;align=center;verticalAlign=middle;whiteSpace=wrap;rounded=0;" vertex="1" parent="iwIBc7VTmAkqCL7bW6ua-1">
          <mxGeometry x="163" y="263" width="69" height="20" as="geometry" />
        </mxCell>
        <mxCell id="iwIBc7VTmAkqCL7bW6ua-11" value="大于" style="text;html=1;strokeColor=none;fillColor=none;align=center;verticalAlign=middle;whiteSpace=wrap;rounded=0;" vertex="1" parent="iwIBc7VTmAkqCL7bW6ua-1">
          <mxGeometry x="353" y="315" width="54" height="20" as="geometry" />
        </mxCell>
        <mxCell id="iwIBc7VTmAkqCL7bW6ua-12" value="大于" style="text;html=1;strokeColor=none;fillColor=none;align=center;verticalAlign=middle;whiteSpace=wrap;rounded=0;" vertex="1" parent="iwIBc7VTmAkqCL7bW6ua-1">
          <mxGeometry x="353" y="444" width="54" height="20" as="geometry" />
        </mxCell>
        <mxCell id="iwIBc7VTmAkqCL7bW6ua-14" style="edgeStyle=orthogonalEdgeStyle;rounded=0;orthogonalLoop=1;jettySize=auto;html=1;exitX=0.1;exitY=0.5;exitDx=0;exitDy=0;exitPerimeter=0;" edge="1" parent="iwIBc7VTmAkqCL7bW6ua-1" source="iwIBc7VTmAkqCL7bW6ua-13">
          <mxGeometry relative="1" as="geometry">
            <mxPoint x="577" y="384" as="targetPoint" />
          </mxGeometry>
        </mxCell>
        <mxCell id="iwIBc7VTmAkqCL7bW6ua-13" value="" style="shape=curlyBracket;whiteSpace=wrap;html=1;rounded=1;flipH=1;size=0.5;" vertex="1" parent="iwIBc7VTmAkqCL7bW6ua-1">
          <mxGeometry x="460" y="255" width="20" height="257" as="geometry" />
        </mxCell>
        <mxCell id="iwIBc7VTmAkqCL7bW6ua-23" style="edgeStyle=orthogonalEdgeStyle;rounded=0;orthogonalLoop=1;jettySize=auto;html=1;exitX=1;exitY=0.5;exitDx=0;exitDy=0;entryX=0.5;entryY=1;entryDx=0;entryDy=0;" edge="1" parent="iwIBc7VTmAkqCL7bW6ua-1" source="iwIBc7VTmAkqCL7bW6ua-15" target="iwIBc7VTmAkqCL7bW6ua-22">
          <mxGeometry relative="1" as="geometry" />
        </mxCell>
        <mxCell id="iwIBc7VTmAkqCL7bW6ua-15" value="主体" style="rhombus;whiteSpace=wrap;html=1;" vertex="1" parent="iwIBc7VTmAkqCL7bW6ua-1">
          <mxGeometry x="582" y="344" width="80" height="80" as="geometry" />
        </mxCell>
        <mxCell id="iwIBc7VTmAkqCL7bW6ua-17" value="2.判断" style="text;html=1;strokeColor=none;fillColor=none;align=center;verticalAlign=middle;whiteSpace=wrap;rounded=0;" vertex="1" parent="iwIBc7VTmAkqCL7bW6ua-1">
          <mxGeometry x="507" y="354" width="40" height="20" as="geometry" />
        </mxCell>
        <mxCell id="iwIBc7VTmAkqCL7bW6ua-18" value="3.跟踪响应" style="text;html=1;strokeColor=none;fillColor=none;align=center;verticalAlign=middle;whiteSpace=wrap;rounded=0;" vertex="1" parent="iwIBc7VTmAkqCL7bW6ua-1">
          <mxGeometry x="325" y="78" width="110" height="20" as="geometry" />
        </mxCell>
        <mxCell id="iwIBc7VTmAkqCL7bW6ua-22" value="主播框格" style="rounded=1;whiteSpace=wrap;html=1;" vertex="1" parent="iwIBc7VTmAkqCL7bW6ua-1">
          <mxGeometry x="692" y="34" width="120" height="60" as="geometry" />
        </mxCell>
        <mxCell id="iwIBc7VTmAkqCL7bW6ua-25" value="5.直播流" style="text;html=1;strokeColor=none;fillColor=none;align=center;verticalAlign=middle;whiteSpace=wrap;rounded=0;" vertex="1" parent="iwIBc7VTmAkqCL7bW6ua-1">
          <mxGeometry x="592" y="40" width="50" height="20" as="geometry" />
        </mxCell>
        <mxCell id="iwIBc7VTmAkqCL7bW6ua-26" value="4.锁定观看" style="text;html=1;strokeColor=none;fillColor=none;align=center;verticalAlign=middle;whiteSpace=wrap;rounded=0;" vertex="1" parent="iwIBc7VTmAkqCL7bW6ua-1">
          <mxGeometry x="663" y="350" width="65" height="20" as="geometry" />
        </mxCell>
      </root>
    </mxGraphModel>
  </diagram>
  <diagram id="3awysjxuAGXnrTB0xz8E" name="Page-3">
    <mxGraphModel dx="1422" dy="761" grid="1" gridSize="10" guides="1" tooltips="1" connect="1" arrows="1" fold="1" page="1" pageScale="1" pageWidth="827" pageHeight="1169" math="0" shadow="0">
      <root>
        <mxCell id="2evQny_esPO3pcYpgFuz-0" />
        <mxCell id="2evQny_esPO3pcYpgFuz-1" parent="2evQny_esPO3pcYpgFuz-0" />
      </root>
    </mxGraphModel>
  </diagram>
</mxfile>
